<svg width="72" height="20" viewBox="0 0 72 20" fill="none" xmlns="http://www.w3.org/2000/svg">
<path fill-rule="evenodd" clip-rule="evenodd" d="M4.98927 15.6295L8.85769 12.9616L12.7261 16.2965L16.5945 10.9607L20.463 13.6286H24.3314L28.1998 7.62587L32.0682 5.62496L35.9366 7.62587L39.8051 0.956177L43.6735 7.62587L47.5419 6.29193L51.4103 2.95708L56.0524 5.62496L59.1472 4.62451L63.0156 4.95799L66.884 0.956177L71.5261 8.29284V19.6313H0.347168V14.2956L4.98927 15.6295Z" fill="url(#paint0_linear_1731_754)"/>
<path d="M1.12061 14.2956L4.98903 15.6295L8.85745 12.9616L12.7259 15.6295L16.5943 10.9607L20.4627 13.6286H24.3311L28.1995 7.62587L32.068 5.62496L35.9364 7.62587L39.8048 0.956177L43.6732 7.62587L47.5417 6.29193L51.4101 2.95708L55.2785 5.62496L59.1469 4.29102L63.0153 4.95799L66.8838 0.956177L70.7522 7.62587" stroke="#4592FF" stroke-width="1.16053" stroke-linecap="round" stroke-linejoin="round"/>
<defs>
<linearGradient id="paint0_linear_1731_754" x1="-14.4818" y1="-6.82513" x2="-14.4818" y2="19.6313" gradientUnits="userSpaceOnUse">
<stop stop-color="#4592FF"/>
<stop offset="1" stop-color="white" stop-opacity="0.01"/>
</linearGradient>
</defs>
</svg>
