<svg width="72" height="20" viewBox="0 0 72 20" fill="none" xmlns="http://www.w3.org/2000/svg">
<path fill-rule="evenodd" clip-rule="evenodd" d="M5.24757 5.57176L9.11599 9.86704L12.9844 11.6545L16.8528 13.2819L20.7213 8.98664L24.5897 18.2709L28.4581 14.5892L32.3265 7.94617L36.1949 3.7576L40.0634 7.14581L43.9318 4.53129L47.8002 9.38682L51.6686 10.6941L56.3107 6.3988L59.4055 1.52993L63.2739 1.86341L67.1423 8.69318L71.7844 0.556152V19.6315H0.605469V11.9747L5.24757 5.57176Z" fill="url(#paint0_linear_1731_769)"/>
<path d="M1.37939 11.201L5.24781 5.57173L9.11624 9.86701L12.9847 11.7612L16.8531 13.2819L20.7215 8.98661L24.5899 18.2708L28.4583 14.5892L32.3268 7.94614L36.1952 3.75758L40.0636 7.14578L43.932 4.53126L47.6564 9.32962L51.6689 10.6941L55.5373 7.17246L59.4057 1.9701L63.2741 2.63707L67.1425 8.69315L71.011 1.43652" stroke="#539BBB" stroke-width="1.16053" stroke-linecap="round" stroke-linejoin="round"/>
<defs>
<linearGradient id="paint0_linear_1731_769" x1="-14.2235" y1="-7.3919" x2="-14.2235" y2="19.6315" gradientUnits="userSpaceOnUse">
<stop stop-color="#4592FF"/>
<stop offset="1" stop-color="white" stop-opacity="0.01"/>
</linearGradient>
</defs>
</svg>
