<svg width="72" height="20" viewBox="0 0 72 20" fill="none" xmlns="http://www.w3.org/2000/svg">
<path fill-rule="evenodd" clip-rule="evenodd" d="M4.77882 3.25055L8.64724 5.22478L12.5157 7.78594L16.3841 5.54492L20.2525 3.5707L24.1209 2.79701L27.9893 3.75745L31.8578 8.7197L35.7262 1.43639L39.5946 0.956177L43.463 3.75745L47.3315 10.1604L51.1999 6.8255L55.0683 2.53022L58.9367 7.71924L62.8051 10.3738L66.6736 8.69302L71.3157 4.42442V19.6313H0.136719V8.87977L4.77882 3.25055Z" fill="url(#paint0_linear_1731_749)"/>
<path d="M0.910645 8.87977L4.77906 3.25055L8.64749 5.22478L12.5159 7.89266L16.3843 5.54492L20.2527 3.5707L24.1212 2.79701L27.9896 3.75745L31.858 8.7197L35.7264 1.43639L39.5948 0.956177L43.4633 3.75745L47.3317 10.1604L51.2001 6.82551L55.0685 2.53022L58.937 8.15944L62.8054 10.3738L66.6738 8.69302L70.5422 4.53113" stroke="#4592FF" stroke-width="1.16053" stroke-linecap="round" stroke-linejoin="round"/>
<defs>
<linearGradient id="paint0_linear_1731_749" x1="-14.6922" y1="-6.82513" x2="-14.6922" y2="19.6313" gradientUnits="userSpaceOnUse">
<stop stop-color="#4592FF"/>
<stop offset="1" stop-color="white" stop-opacity="0.01"/>
</linearGradient>
</defs>
</svg>
