<svg width="72" height="20" viewBox="0 0 72 20" fill="none" xmlns="http://www.w3.org/2000/svg">
<path fill-rule="evenodd" clip-rule="evenodd" d="M5.45802 15.6295L9.32644 12.9616L13.1949 16.2965L17.0633 10.9607L20.9317 13.6286H24.8001L28.6685 7.62587L32.537 5.62496L36.4054 7.62587L40.2738 0.956177L44.1422 7.62587L48.0107 6.29193L51.8791 2.95708L56.5212 5.62496L59.6159 4.62451L63.4843 4.95799L67.3528 0.956177L71.9949 8.29284V19.6313H0.815918V14.2956L5.45802 15.6295Z" fill="url(#paint0_linear_1731_774)"/>
<path d="M1.58984 14.2956L5.45826 15.6295L9.32668 12.9616L13.1951 15.6295L17.0635 10.9607L20.9319 13.6286H24.8004L28.6688 7.62587L32.5372 5.62496L36.4056 7.62587L40.274 0.956177L44.1425 7.62587L48.0109 6.29193L51.8793 2.95708L55.7477 5.62496L59.6162 4.29102L63.4846 4.95799L67.353 0.956177L71.2214 7.62587" stroke="#539BBB" stroke-width="1.16053" stroke-linecap="round" stroke-linejoin="round"/>
<defs>
<linearGradient id="paint0_linear_1731_774" x1="-14.013" y1="-6.82513" x2="-14.013" y2="19.6313" gradientUnits="userSpaceOnUse">
<stop stop-color="#4592FF"/>
<stop offset="1" stop-color="white" stop-opacity="0.01"/>
</linearGradient>
</defs>
</svg>
