<svg width="72" height="20" viewBox="0 0 72 20" fill="none" xmlns="http://www.w3.org/2000/svg">
<path fill-rule="evenodd" clip-rule="evenodd" d="M4.95802 7.89342L8.82644 9.09396L12.6949 5.46565L16.5633 7.86674L20.4317 13.6294H24.3001L28.1685 5.30558L32.037 3.30467L35.9054 2.98452L39.7738 16.4306L43.6422 6.07926L47.5107 3.97164L51.3791 2.18416L56.0212 3.30467L59.1159 1.53053L62.9843 1.09033L66.8528 16.4306L71.4949 15.2568V19.6321H0.315918V11.9753L4.95802 7.89342Z" fill="url(#paint0_linear_1731_759)"/>
<path d="M1.08936 11.9753L4.95778 7.89342L8.8262 9.09396L12.6946 5.57236L16.563 7.86674L20.4315 13.6294H24.2999L28.1683 5.30558L32.0367 3.30467L35.9051 2.98452L39.7736 16.4306L43.642 6.07926L47.5104 3.97164L51.3788 2.18416L55.2472 3.30467L59.1157 1.19705L62.9841 1.09033L66.8525 16.4306L70.7209 15.3635" stroke="#539BBB" stroke-width="1.16053" stroke-linecap="round" stroke-linejoin="round"/>
<defs>
<linearGradient id="paint0_linear_1731_759" x1="-14.513" y1="-6.63539" x2="-14.513" y2="19.6321" gradientUnits="userSpaceOnUse">
<stop stop-color="#4592FF"/>
<stop offset="1" stop-color="white" stop-opacity="0.01"/>
</linearGradient>
</defs>
</svg>
