<svg width="72" height="20" viewBox="0 0 72 20" fill="none" xmlns="http://www.w3.org/2000/svg">
<path fill-rule="evenodd" clip-rule="evenodd" d="M5.16847 3.25055L9.03689 5.22478L12.9053 7.78594L16.7737 5.54492L20.6422 3.5707L24.5106 2.79701L28.379 3.75745L32.2474 8.7197L36.1158 1.43639L39.9843 0.956177L43.8527 3.75745L47.7211 10.1604L51.5895 6.8255L55.4579 2.53022L59.3264 7.71924L63.1948 10.3738L67.0632 8.69302L71.7053 4.42442V19.6313H0.526367V8.87977L5.16847 3.25055Z" fill="url(#paint0_linear_1731_764)"/>
<path d="M1.30029 8.87977L5.16871 3.25055L9.03713 5.22478L12.9056 7.89266L16.774 5.54492L20.6424 3.5707L24.5108 2.79701L28.3792 3.75745L32.2477 8.7197L36.1161 1.43639L39.9845 0.956177L43.8529 3.75745L47.7213 10.1604L51.5898 6.82551L55.4582 2.53022L59.3266 8.15944L63.195 10.3738L67.0634 8.69302L70.9319 4.53113" stroke="#539BBB" stroke-width="1.16053" stroke-linecap="round" stroke-linejoin="round"/>
<defs>
<linearGradient id="paint0_linear_1731_764" x1="-14.3026" y1="-6.82513" x2="-14.3026" y2="19.6313" gradientUnits="userSpaceOnUse">
<stop stop-color="#4592FF"/>
<stop offset="1" stop-color="white" stop-opacity="0.01"/>
</linearGradient>
</defs>
</svg>
