<svg width="26" height="26" viewBox="0 0 26 26" fill="none" xmlns="http://www.w3.org/2000/svg">
<g clip-path="url(#clip0_1884_428)">
<path fill-rule="evenodd" clip-rule="evenodd" d="M12.6749 6.58813C9.25152 6.58813 6.48438 9.35528 6.48438 12.7786C6.48438 16.2019 9.25152 18.9691 12.6749 18.9691C16.0982 18.9691 18.8653 16.2019 18.8653 12.7786C18.8653 9.35528 16.0982 6.58813 12.6749 6.58813ZM12.6749 17.731C9.94485 17.731 7.72247 15.5086 7.72247 12.7786C7.72247 10.0486 9.94485 7.82623 12.6749 7.82623C15.4049 7.82623 17.6272 10.0486 17.6272 12.7786C17.6272 15.5086 15.4049 17.731 12.6749 17.731ZM12.6749 11.9058L14.8972 9.68337L15.7701 10.5562L13.5477 12.7786L15.7701 15.001L14.8972 15.8738L12.6749 13.6515L10.4525 15.8738L9.57961 15.001L11.802 12.7786L9.57961 10.5562L10.4525 9.68337L12.6749 11.9058Z" fill="#539BBB"/>
</g>
<defs>
<clipPath id="clip0_1884_428">
<rect x="0.293945" y="0.397705" width="24.7619" height="24.7619" rx="12.381" fill="white"/>
</clipPath>
</defs>
</svg>
