<svg width="19" height="20" viewBox="0 0 19 20" fill="none" xmlns="http://www.w3.org/2000/svg">
<path d="M0.690796 8.93987C0.690796 7.83988 1.19451 6.80045 2.05787 6.11885L6.9999 2.21725C8.3057 1.18634 10.1483 1.18634 11.4542 2.21724L16.3962 6.11884C17.2595 6.80045 17.7633 7.83988 17.7633 8.93987V14.8358C17.7633 16.8208 16.1541 18.43 14.1691 18.43H12.8212C12.325 18.43 11.9227 18.0277 11.9227 17.5314V14.8358C11.9227 13.8433 11.1181 13.0387 10.1256 13.0387H8.32848C7.33596 13.0387 6.53138 13.8433 6.53138 14.8358V17.5315C6.53138 18.0277 6.12908 18.43 5.63282 18.43H4.285C2.29998 18.43 0.690796 16.8208 0.690796 14.8358L0.690796 8.93987Z" stroke="#FEFEFD" stroke-width="1.34783"/>
</svg>
