<svg width="18" height="20" viewBox="0 0 18 20" fill="none" xmlns="http://www.w3.org/2000/svg">
<path d="M14.1945 7.57983L16.0837 8.60177L16.4791 8.82396C17.3217 9.29735 17.3217 10.5178 16.4791 10.9912L11.1133 14.0059C9.86881 14.7051 8.35336 14.7051 7.1089 14.0059L1.74302 10.9912C0.900438 10.5178 0.90044 9.29735 1.74302 8.82396L2.1385 8.60177L3.92294 7.57983M14.6054 12.1299L16.3226 12.9943C17.2082 13.4401 17.2366 14.702 16.372 15.1878L11.1133 18.1423C9.86881 18.8415 8.35336 18.8415 7.1089 18.1423L1.9269 15.2309C1.04744 14.7368 1.0959 13.4469 2.00992 13.0211L3.92294 12.1299M11.1133 9.60996L16.4791 6.59523C17.3217 6.12185 17.3217 4.90141 16.4792 4.42802L11.1133 1.4133C9.86881 0.714123 8.35336 0.714122 7.1089 1.4133L1.74302 4.42802C0.900441 4.9014 0.900438 6.12185 1.74302 6.59523L7.1089 9.60995C8.35336 10.3091 9.86881 10.3091 11.1133 9.60996Z" stroke="#FEFEFE" stroke-width="1.33333"/>
</svg>
