<svg width="46" height="51" viewBox="0 0 46 51" fill="none" xmlns="http://www.w3.org/2000/svg">
<g filter="url(#filter0_dddd_1731_812)">
<rect x="2" y="1.67261" width="31.6696" height="31.6696" rx="10.3835" fill="white"/>
<path d="M10.7393 20.0679L11.4044 20.0679L10.7393 20.0679ZM13.1631 22.9045L13.0718 23.5634L13.0718 23.5634L13.1631 22.9045ZM22.1976 22.9045L22.289 23.5634L22.289 23.5634L22.1976 22.9045ZM24.2076 18.5616L24.7788 18.2208L24.2076 18.5616ZM11.1528 18.5623L10.5814 18.2217L11.1528 18.5623ZM12.9459 14.0376C12.9459 11.4233 15.0652 9.30411 17.6794 9.30411V7.97372C14.3304 7.97372 11.6156 10.6886 11.6156 14.0376H12.9459ZM12.9459 15.8955V14.0376H11.6156V15.8955H12.9459ZM11.4044 20.0679C11.4044 19.6409 11.5212 19.2433 11.7241 18.9029L10.5814 18.2217C10.2591 18.7624 10.0741 19.3945 10.0741 20.0679L11.4044 20.0679ZM13.2545 22.2456C12.1905 22.0981 11.4044 21.1731 11.4044 20.0679L10.0741 20.0679C10.0741 21.8059 11.3194 23.3204 13.0718 23.5634L13.2545 22.2456ZM17.6804 22.6282C16.3571 22.6282 14.6475 22.4388 13.2545 22.2456L13.0718 23.5634C14.4756 23.758 16.2607 23.9586 17.6804 23.9586V22.6282ZM22.1063 22.2456C20.7133 22.4388 19.0037 22.6282 17.6804 22.6282V23.9586C19.1001 23.9586 20.8852 23.758 22.289 23.5634L22.1063 22.2456ZM23.9563 20.0679C23.9563 21.1731 23.1703 22.0981 22.1063 22.2456L22.289 23.5634C24.0414 23.3204 25.2867 21.8059 25.2867 20.0679H23.9563ZM23.6363 18.9024C23.8394 19.2429 23.9563 19.6407 23.9563 20.0679H25.2867C25.2867 19.3941 25.1015 18.7617 24.7788 18.2208L23.6363 18.9024ZM22.4129 14.0376V15.8931H23.7432V14.0376H22.4129ZM17.6794 9.30411C20.2936 9.30411 22.4129 11.4234 22.4129 14.0376H23.7432C23.7432 10.6886 21.0284 7.97372 17.6794 7.97372V9.30411ZM24.7788 18.2208C24.5047 17.7612 24.2557 17.393 24.0504 16.9819C23.8538 16.5881 23.7432 16.2369 23.7432 15.8931H22.4129C22.4129 16.5256 22.617 17.0894 22.8601 17.5762C23.0945 18.0456 23.4103 18.5235 23.6363 18.9024L24.7788 18.2208ZM11.6156 15.8955C11.6156 16.2391 11.5052 16.5901 11.3089 16.9835C11.1038 17.3944 10.8552 17.7624 10.5814 18.2217L11.7241 18.9029C11.9499 18.5243 12.2652 18.0466 12.4993 17.5775C12.7421 17.091 12.9459 16.5275 12.9459 15.8955H11.6156Z" fill="#2F667F"/>
<path d="M19.6084 25.3428C19.1939 25.9662 18.4851 26.3771 17.6803 26.3771C16.8755 26.3771 16.1667 25.9662 15.7522 25.3428" stroke="#2F667F" stroke-width="1.33038" stroke-linecap="round"/>
<circle cx="26.6609" cy="8.68137" r="1.81711" fill="#539BBB"/>
</g>
<defs>
<filter id="filter0_dddd_1731_812" x="0.222222" y="0.783719" width="45.0028" height="49.4475" filterUnits="userSpaceOnUse" color-interpolation-filters="sRGB">
<feFlood flood-opacity="0" result="BackgroundImageFix"/>
<feColorMatrix in="SourceAlpha" type="matrix" values="0 0 0 0 0 0 0 0 0 0 0 0 0 0 0 0 0 0 127 0" result="hardAlpha"/>
<feOffset dy="0.888889"/>
<feGaussianBlur stdDeviation="0.888889"/>
<feColorMatrix type="matrix" values="0 0 0 0 0 0 0 0 0 0 0 0 0 0 0 0 0 0 0.1 0"/>
<feBlend mode="normal" in2="BackgroundImageFix" result="effect1_dropShadow_1731_812"/>
<feColorMatrix in="SourceAlpha" type="matrix" values="0 0 0 0 0 0 0 0 0 0 0 0 0 0 0 0 0 0 127 0" result="hardAlpha"/>
<feOffset dx="1.77778" dy="2.66667"/>
<feGaussianBlur stdDeviation="1.77778"/>
<feColorMatrix type="matrix" values="0 0 0 0 0 0 0 0 0 0 0 0 0 0 0 0 0 0 0.09 0"/>
<feBlend mode="normal" in2="effect1_dropShadow_1731_812" result="effect2_dropShadow_1731_812"/>
<feColorMatrix in="SourceAlpha" type="matrix" values="0 0 0 0 0 0 0 0 0 0 0 0 0 0 0 0 0 0 127 0" result="hardAlpha"/>
<feOffset dx="3.55556" dy="6.22222"/>
<feGaussianBlur stdDeviation="2.22222"/>
<feColorMatrix type="matrix" values="0 0 0 0 0 0 0 0 0 0 0 0 0 0 0 0 0 0 0.05 0"/>
<feBlend mode="normal" in2="effect2_dropShadow_1731_812" result="effect3_dropShadow_1731_812"/>
<feColorMatrix in="SourceAlpha" type="matrix" values="0 0 0 0 0 0 0 0 0 0 0 0 0 0 0 0 0 0 127 0" result="hardAlpha"/>
<feOffset dx="6.22222" dy="11.5556"/>
<feGaussianBlur stdDeviation="2.66667"/>
<feColorMatrix type="matrix" values="0 0 0 0 0 0 0 0 0 0 0 0 0 0 0 0 0 0 0.01 0"/>
<feBlend mode="normal" in2="effect3_dropShadow_1731_812" result="effect4_dropShadow_1731_812"/>
<feBlend mode="normal" in="SourceGraphic" in2="effect4_dropShadow_1731_812" result="shape"/>
</filter>
</defs>
</svg>
