<svg width="209" height="115" viewBox="0 0 209 115" fill="none" xmlns="http://www.w3.org/2000/svg">
<path opacity="0.5" d="M-1.05598 87.5101L8.63106 96.5052L9.01077 96.8578L9.48548 96.6501L22.1287 91.1187L22.2731 91.0555L22.3823 90.9417L34.6935 78.1048L46.8764 81.6708L47.6684 81.9026L47.8657 81.1013L60.3193 30.5084L72.1931 33.4768L72.868 33.6455L73.1209 32.9975L85.4175 1.48734L97.0684 8.76916L109.612 33.0726L109.764 33.366L110.079 33.4644L122.536 37.3574L135.042 49.8632L135.856 50.6767L136.323 49.6253L148.597 22.0094L160.468 29.4293L160.822 29.6503L161.204 29.4832L173.624 24.0493L185.74 26.321L198.2 41.896L198.645 42.4524L199.244 42.0671L209.089 35.738V115.681H-0.333645L-1.05598 87.5101Z" fill="#FFC4C9" stroke="#FF4F52" stroke-width="1.5804"/>
</svg>
