<svg width="208" height="115" viewBox="0 0 208 115" fill="none" xmlns="http://www.w3.org/2000/svg">
<path d="M208.615 115.681H-0.790367V94.3458H20.545H20.9211L21.1583 94.0539L31.3726 81.4824L61.7756 58.0955L72.4324 61.9016L72.959 62.0896L73.3115 61.6557L83.5841 49.0125L83.6875 48.8852L83.7317 48.7273L94.7337 9.43437L103.537 1.36482L113.278 9.60744L113.429 9.73537L113.623 9.77687L124.538 12.1159L133.695 18.2202L144.666 44.8641L144.95 45.554L145.655 45.3099L165.388 38.4792L175.449 77.9468L175.745 79.1096L176.696 78.3779L196.977 62.7769L207.711 64.3103L207.797 64.3227L207.885 64.3157L208.776 64.2452L208.615 115.681Z" fill="#79AED4" fill-opacity="0.5" stroke="#589CED" stroke-width="1.5804"/>
</svg>
