<svg width="31" height="31" viewBox="0 0 31 31" fill="none" xmlns="http://www.w3.org/2000/svg">
<g clip-path="url(#clip0_1884_417)">
<path fill-rule="evenodd" clip-rule="evenodd" d="M17.1452 16.5649L20.6924 20.112L19.77 21.0344L16.2229 17.4873C15.5605 17.9639 14.7619 18.2549 13.889 18.2549C11.6667 18.2549 9.86523 16.4535 9.86523 14.2311C9.86523 12.0087 11.6667 10.2073 13.889 10.2073C16.1114 10.2073 17.9129 12.0087 17.9129 14.2311C17.9129 15.1039 17.6219 15.9025 17.1452 16.5649ZM13.889 11.4454C12.3476 11.4454 11.1033 12.6897 11.1033 14.2311C11.1033 15.7725 12.3476 17.0168 13.889 17.0168C15.4305 17.0168 16.6748 15.7725 16.6748 14.2311C16.6748 12.6897 15.4305 11.4454 13.889 11.4454Z" fill="#539BBB"/>
</g>
<defs>
<clipPath id="clip0_1884_417">
<rect x="3.05566" y="3.39771" width="24.7619" height="24.7619" rx="12.381" fill="white"/>
</clipPath>
</defs>
</svg>
