<svg width="45" height="49" viewBox="0 0 45 49" fill="none" xmlns="http://www.w3.org/2000/svg">
<g filter="url(#filter0_dddd_1731_816)">
<rect x="2.33936" y="1.67261" width="31.6696" height="31.6696" rx="10.3835" fill="white"/>
<circle cx="2.66077" cy="2.66077" r="2.66077" transform="matrix(-1 0 0 1 20.835 14.8467)" stroke="#2F667F" stroke-width="1.33038"/>
<path d="M22.1653 11.2435L21.8327 11.8196L22.1653 11.2435ZM22.1653 23.771L21.8327 23.1949L22.1653 23.771ZM14.183 23.771L14.5156 23.1949H14.5156L14.183 23.771ZM14.183 11.2435L14.5156 11.8196L14.183 11.2435ZM15.4451 9.53848L14.797 9.38853V9.38853L15.4451 9.53848ZM15.9916 8.90873L15.8284 8.26386L15.9916 8.90873ZM9.79829 14.5831L9.17027 14.3639L9.79829 14.5831ZM12.2423 23.4855L12.0896 22.838L12.2423 23.4855ZM11.4362 23.2751L10.931 23.7079L11.4362 23.2751ZM15.9917 26.1061L16.1549 25.4612L15.9917 26.1061ZM15.4451 25.4763L14.797 25.6262L15.4451 25.4763ZM20.9033 25.4762L21.5513 25.6261L20.9033 25.4762ZM20.3567 26.1061L20.1935 25.4612L20.3567 26.1061ZM24.9121 23.2751L25.4172 23.7078L24.9121 23.2751ZM24.106 23.4854L23.9533 24.1329L24.106 23.4854ZM26.55 14.5831L27.178 14.3639L26.55 14.5831ZM26.2394 15.4529L26.6624 15.9663L26.2394 15.4529ZM10.1088 19.5619L10.5318 20.0753L10.1088 19.5619ZM24.9119 11.7395L24.4067 12.1723L24.9119 11.7395ZM12.2425 11.5291L12.0898 12.1765L12.2425 11.5291ZM26.2394 19.5619L26.6624 19.0486L26.2394 19.5619ZM26.55 20.4317L27.178 20.6509L26.55 20.4317ZM20.9033 9.5385L20.2552 9.68846L20.9033 9.5385ZM20.3568 8.90876L20.52 8.2639L20.3568 8.90876ZM20.2552 9.68846C20.4555 10.554 21.0015 11.3397 21.8327 11.8196L22.4979 10.6674C21.9992 10.3795 21.672 9.90985 21.5514 9.38854L20.2552 9.68846ZM21.8327 11.8196C22.5963 12.2604 23.4636 12.364 24.2585 12.1765L23.9532 10.8817C23.475 10.9944 22.9565 10.9322 22.4979 10.6674L21.8327 11.8196ZM27.178 14.3639C26.7828 13.2319 26.1805 12.1977 25.417 11.3067L24.4067 12.1723C25.0644 12.9398 25.5823 13.8296 25.9219 14.8024L27.178 14.3639ZM25.9347 17.5074C25.9347 16.8871 26.2169 16.3333 26.6624 15.9663L25.8164 14.9395C25.0774 15.5484 24.6043 16.473 24.6043 17.5074H25.9347ZM26.6624 19.0486C26.2169 18.6815 25.9347 18.1277 25.9347 17.5074H24.6043C24.6043 18.5418 25.0774 19.4664 25.8164 20.0753L26.6624 19.0486ZM25.4172 23.7078C26.1806 22.8169 26.7828 21.7828 27.178 20.6509L25.9219 20.2124C25.5824 21.1851 25.0645 22.0748 24.407 22.8423L25.4172 23.7078ZM22.4979 24.3471C22.9566 24.0823 23.4751 24.0201 23.9533 24.1329L24.2587 22.838C23.4637 22.6505 22.5964 22.754 21.8327 23.1949L22.4979 24.3471ZM21.5513 25.6261C21.6719 25.1048 21.9991 24.6351 22.4979 24.3471L21.8327 23.1949C21.0014 23.6749 20.4554 24.4607 20.2552 25.3263L21.5513 25.6261ZM18.1741 27.0418C18.9827 27.0418 19.7688 26.941 20.5199 26.7509L20.1935 25.4612C19.5482 25.6245 18.8718 25.7114 18.1741 25.7114V27.0418ZM15.8285 26.751C16.5796 26.941 17.3656 27.0418 18.1741 27.0418V25.7114C17.4765 25.7114 16.8001 25.6245 16.1549 25.4612L15.8285 26.751ZM13.8504 24.3471C14.3493 24.6351 14.6765 25.1048 14.797 25.6262L16.0932 25.3264C15.893 24.4607 15.347 23.6749 14.5156 23.1949L13.8504 24.3471ZM12.395 24.1329C12.8732 24.0201 13.3918 24.0823 13.8504 24.3471L14.5156 23.1949C13.752 22.754 12.8846 22.6505 12.0896 22.838L12.395 24.1329ZM9.17027 20.6509C9.56542 21.7828 10.1676 22.8169 10.931 23.7079L11.9413 22.8423C11.2838 22.0748 10.7659 21.1851 10.4263 20.2124L9.17027 20.6509ZM10.4136 17.5074C10.4136 18.1277 10.1314 18.6815 9.68584 19.0486L10.5318 20.0753C11.2709 19.4664 11.7439 18.5418 11.7439 17.5074H10.4136ZM9.68584 15.9663C10.1314 16.3333 10.4136 16.8871 10.4136 17.5074H11.7439C11.7439 16.473 11.2709 15.5484 10.5318 14.9395L9.68584 15.9663ZM10.9313 11.3066C10.1678 12.1977 9.56546 13.2319 9.17027 14.3639L10.4263 14.8024C10.7659 13.8296 11.2839 12.9398 11.9415 12.1723L10.9313 11.3066ZM13.8504 10.6674C13.3918 10.9322 12.8733 10.9944 12.3951 10.8817L12.0898 12.1765C12.8847 12.364 13.752 12.2605 14.5156 11.8196L13.8504 10.6674ZM14.797 9.38853C14.6764 9.90984 14.3492 10.3795 13.8504 10.6674L14.5156 11.8196C15.3469 11.3397 15.8929 10.554 16.0931 9.68843L14.797 9.38853ZM18.1741 7.97299C17.3655 7.97299 16.5795 8.0738 15.8284 8.26386L16.1548 9.55359C16.8001 9.39031 17.4765 9.30338 18.1741 9.30338V7.97299ZM20.52 8.2639C19.7688 8.07381 18.9828 7.97299 18.1741 7.97299V9.30338C18.8718 9.30338 19.5483 9.39032 20.1936 9.55363L20.52 8.2639ZM16.0931 9.68843C16.107 9.62859 16.1304 9.58638 16.1486 9.56424C16.1643 9.54522 16.1671 9.55048 16.1548 9.55359L15.8284 8.26386C15.2154 8.41898 14.8988 8.94842 14.797 9.38853L16.0931 9.68843ZM10.5318 14.9395C10.4778 14.895 10.4464 14.8469 10.4338 14.8147C10.4233 14.7876 10.431 14.7888 10.4263 14.8024L9.17027 14.3639C8.93434 15.0397 9.29988 15.6483 9.68584 15.9663L10.5318 14.9395ZM12.0896 22.838C12.0299 22.8521 11.9818 22.8498 11.9539 22.8433C11.9299 22.8377 11.9332 22.8328 11.9413 22.8423L10.931 23.7079C11.3417 24.1872 11.9555 24.2366 12.395 24.1329L12.0896 22.838ZM16.1549 25.4612C16.1671 25.4643 16.1644 25.4696 16.1487 25.4506C16.1305 25.4284 16.1071 25.3862 16.0932 25.3264L14.797 25.6262C14.8988 26.0663 15.2154 26.5958 15.8285 26.751L16.1549 25.4612ZM20.2552 25.3263C20.2413 25.3862 20.2179 25.4284 20.1997 25.4506C20.184 25.4696 20.1812 25.4643 20.1935 25.4612L20.5199 26.7509C21.133 26.5958 21.4495 26.0663 21.5513 25.6261L20.2552 25.3263ZM24.407 22.8423C24.4151 22.8328 24.4184 22.8377 24.3944 22.8433C24.3665 22.8498 24.3183 22.8521 24.2587 22.838L23.9533 24.1329C24.3928 24.2365 25.0065 24.1872 25.4172 23.7078L24.407 22.8423ZM25.9219 14.8024C25.9172 14.7888 25.925 14.7876 25.9144 14.8147C25.9018 14.8469 25.8704 14.895 25.8164 14.9395L26.6624 15.9663C27.0484 15.6483 27.4139 15.0397 27.178 14.3639L25.9219 14.8024ZM10.4263 20.2124C10.431 20.226 10.4233 20.2272 10.4338 20.2001C10.4464 20.1679 10.4778 20.1198 10.5318 20.0753L9.68584 19.0486C9.29988 19.3666 8.93434 19.9751 9.17027 20.6509L10.4263 20.2124ZM24.2585 12.1765C24.3181 12.1625 24.3662 12.1648 24.3941 12.1713C24.4181 12.1769 24.4148 12.1818 24.4067 12.1723L25.417 11.3067C25.0063 10.8274 24.3927 10.778 23.9532 10.8817L24.2585 12.1765ZM11.9415 12.1723C11.9334 12.1817 11.9301 12.1769 11.9541 12.1713C11.982 12.1648 12.0302 12.1625 12.0898 12.1765L12.3951 10.8817C11.9556 10.778 11.342 10.8274 10.9313 11.3066L11.9415 12.1723ZM25.8164 20.0753C25.8704 20.1198 25.9018 20.1679 25.9144 20.2001C25.925 20.2272 25.9172 20.226 25.9219 20.2124L27.178 20.6509C27.4139 19.9751 27.0484 19.3666 26.6624 19.0486L25.8164 20.0753ZM21.5514 9.38854C21.4495 8.94845 21.133 8.41903 20.52 8.2639L20.1936 9.55363C20.1813 9.55052 20.1841 9.54526 20.1997 9.56427C20.2179 9.58641 20.2414 9.62862 20.2552 9.68846L21.5514 9.38854Z" fill="#2F667F"/>
</g>
<defs>
<filter id="filter0_dddd_1731_816" x="0.561578" y="0.783719" width="44.1139" height="47.6697" filterUnits="userSpaceOnUse" color-interpolation-filters="sRGB">
<feFlood flood-opacity="0" result="BackgroundImageFix"/>
<feColorMatrix in="SourceAlpha" type="matrix" values="0 0 0 0 0 0 0 0 0 0 0 0 0 0 0 0 0 0 127 0" result="hardAlpha"/>
<feOffset dy="0.888889"/>
<feGaussianBlur stdDeviation="0.888889"/>
<feColorMatrix type="matrix" values="0 0 0 0 0 0 0 0 0 0 0 0 0 0 0 0 0 0 0.1 0"/>
<feBlend mode="normal" in2="BackgroundImageFix" result="effect1_dropShadow_1731_816"/>
<feColorMatrix in="SourceAlpha" type="matrix" values="0 0 0 0 0 0 0 0 0 0 0 0 0 0 0 0 0 0 127 0" result="hardAlpha"/>
<feOffset dx="1.77778" dy="2.66667"/>
<feGaussianBlur stdDeviation="1.33333"/>
<feColorMatrix type="matrix" values="0 0 0 0 0 0 0 0 0 0 0 0 0 0 0 0 0 0 0.09 0"/>
<feBlend mode="normal" in2="effect1_dropShadow_1731_816" result="effect2_dropShadow_1731_816"/>
<feColorMatrix in="SourceAlpha" type="matrix" values="0 0 0 0 0 0 0 0 0 0 0 0 0 0 0 0 0 0 127 0" result="hardAlpha"/>
<feOffset dx="3.55556" dy="6.22222"/>
<feGaussianBlur stdDeviation="2.22222"/>
<feColorMatrix type="matrix" values="0 0 0 0 0 0 0 0 0 0 0 0 0 0 0 0 0 0 0.05 0"/>
<feBlend mode="normal" in2="effect2_dropShadow_1731_816" result="effect3_dropShadow_1731_816"/>
<feColorMatrix in="SourceAlpha" type="matrix" values="0 0 0 0 0 0 0 0 0 0 0 0 0 0 0 0 0 0 127 0" result="hardAlpha"/>
<feOffset dx="6.22222" dy="10.6667"/>
<feGaussianBlur stdDeviation="2.22222"/>
<feColorMatrix type="matrix" values="0 0 0 0 0 0 0 0 0 0 0 0 0 0 0 0 0 0 0.01 0"/>
<feBlend mode="normal" in2="effect3_dropShadow_1731_816" result="effect4_dropShadow_1731_816"/>
<feBlend mode="normal" in="SourceGraphic" in2="effect4_dropShadow_1731_816" result="shape"/>
</filter>
</defs>
</svg>
