<svg width="20" height="20" viewBox="0 0 20 20" fill="none" xmlns="http://www.w3.org/2000/svg">
<path d="M15.7144 10.4968L15.2256 10.0434L15.7144 10.4968ZM9.429 4.21138L9.88235 4.70018L9.429 4.21138ZM18.6987 2.9087L19.3598 2.99516L18.6987 2.9087ZM17.0171 1.22705L17.1035 1.88809L17.1035 1.88809L17.0171 1.22705ZM5.21736 10.3561L5.81596 10.6495L5.81596 10.6495L5.21736 10.3561ZM9.56971 14.7084L9.27625 14.1098L9.27625 14.1098L9.56971 14.7084ZM6.75774 8.13971C6.49739 7.87936 6.07528 7.87936 5.81493 8.13971C5.55458 8.40006 5.55458 8.82217 5.81493 9.08252L6.75774 8.13971ZM10.8432 14.1108C11.1036 14.3712 11.5257 14.3712 11.7861 14.1108C12.0464 13.8505 12.0464 13.4284 11.7861 13.168L10.8432 14.1108ZM5.18639 15.6822C5.44674 15.4218 5.44674 14.9997 5.18639 14.7394C4.92604 14.479 4.50393 14.479 4.24359 14.7394L5.18639 15.6822ZM1.72943 17.2535C1.46908 17.5139 1.46908 17.936 1.72943 18.1963C1.98978 18.4567 2.41189 18.4567 2.67224 18.1963L1.72943 17.2535ZM3.30078 13.7966C3.56113 13.5362 3.56113 13.1141 3.30078 12.8538C3.04043 12.5934 2.61832 12.5934 2.35797 12.8538L3.30078 13.7966ZM1.10089 14.1108C0.840539 14.3712 0.840539 14.7933 1.10089 15.0536C1.36124 15.314 1.78335 15.314 2.0437 15.0536L1.10089 14.1108ZM7.07201 17.5678C7.33236 17.3075 7.33236 16.8853 7.07201 16.625C6.81166 16.3646 6.38955 16.3646 6.1292 16.625L7.07201 17.5678ZM4.87212 17.8821C4.61177 18.1424 4.61177 18.5645 4.87212 18.8249C5.13247 19.0852 5.55458 19.0852 5.81493 18.8249L4.87212 17.8821ZM8.86335 17.8506L9.52332 17.7564L9.52332 17.7564L8.86335 17.8506ZM13.4517 14.7708L14.1117 14.6765L14.1117 14.6765L13.4517 14.7708ZM2.07511 11.0624L2.16939 10.4025L2.16939 10.4025L2.07511 11.0624ZM5.15495 6.4741L5.06067 7.13407L5.06067 7.13407L5.15495 6.4741ZM8.11147 13.8933L6.03249 11.8143L5.08968 12.7571L7.16866 14.8361L8.11147 13.8933ZM15.2256 10.0434C13.5424 11.8583 10.8093 13.3582 9.27625 14.1098L9.86317 15.307C11.41 14.5487 14.3395 12.9596 16.2032 10.9501L15.2256 10.0434ZM5.81596 10.6495C6.56754 9.11646 8.06747 6.38341 9.88235 4.70018L8.97566 3.72258C6.96622 5.58627 5.3771 8.51574 4.61876 10.0626L5.81596 10.6495ZM18.0377 2.82225C17.7676 4.88744 17.05 8.07638 15.2256 10.0434L16.2032 10.9501C18.3325 8.65425 19.0855 5.09205 19.3598 2.99516L18.0377 2.82225ZM9.88235 4.70018C11.8494 2.87581 15.0383 2.15819 17.1035 1.88809L16.9306 0.566014C14.8337 0.84026 11.2715 1.59324 8.97566 3.72258L9.88235 4.70018ZM19.3598 2.99516C19.5474 1.5606 18.3652 0.378392 16.9306 0.566014L17.1035 1.88809C17.6697 1.81404 18.1117 2.25606 18.0377 2.82225L19.3598 2.99516ZM6.03249 11.8143C5.70966 11.4915 5.63078 11.0272 5.81596 10.6495L4.61876 10.0626C4.16703 10.984 4.38942 12.0569 5.08968 12.7571L6.03249 11.8143ZM7.16866 14.8361C7.86892 15.5364 8.94175 15.7587 9.86317 15.307L9.27625 14.1098C8.89853 14.295 8.4343 14.2161 8.11147 13.8933L7.16866 14.8361ZM5.81493 9.08252L10.8432 14.1108L11.7861 13.168L6.75774 8.13971L5.81493 9.08252ZM4.24359 14.7394L1.72943 17.2535L2.67224 18.1963L5.18639 15.6822L4.24359 14.7394ZM2.35797 12.8538L1.10089 14.1108L2.0437 15.0536L3.30078 13.7966L2.35797 12.8538ZM6.1292 16.625L4.87212 17.8821L5.81493 18.8249L7.07201 17.5678L6.1292 16.625ZM11.1575 5.31129C10.2029 6.2659 10.2029 7.81364 11.1575 8.76825L12.1003 7.82544C11.6664 7.39153 11.6664 6.68801 12.1003 6.2541L11.1575 5.31129ZM11.1575 8.76825C12.1121 9.72287 13.6599 9.72287 14.6145 8.76825L13.6717 7.82545C13.2378 8.25936 12.5342 8.25936 12.1003 7.82544L11.1575 8.76825ZM14.6145 8.76825C15.5691 7.81364 15.5691 6.2659 14.6145 5.31129L13.6717 6.2541C14.1056 6.68801 14.1056 7.39153 13.6717 7.82545L14.6145 8.76825ZM14.6145 5.31129C13.6599 4.35667 12.1121 4.35667 11.1575 5.31129L12.1003 6.2541C12.5342 5.82018 13.2378 5.82018 13.6717 6.2541L14.6145 5.31129ZM12.7289 15.0536L9.90044 17.8821L10.8432 18.8249L13.6717 15.9965L12.7289 15.0536ZM9.52332 17.7564L9.14619 15.1165L7.82626 15.3051L8.20338 17.9449L9.52332 17.7564ZM12.5403 13.1052L12.7917 14.8651L14.1117 14.6765L13.8602 12.9166L12.5403 13.1052ZM9.90044 17.8821C9.77095 18.0116 9.54921 17.9376 9.52332 17.7564L8.20338 17.9449C8.38466 19.2139 9.93684 19.7313 10.8432 18.8249L9.90044 17.8821ZM13.6717 15.9965C14.0179 15.6502 14.1809 15.1612 14.1117 14.6765L12.7917 14.8651C12.8016 14.9343 12.7783 15.0042 12.7289 15.0536L13.6717 15.9965ZM3.9293 6.25412L1.10087 9.08254L2.04368 10.0254L4.87211 7.19692L3.9293 6.25412ZM1.98082 11.7224L4.62069 12.0995L4.80925 10.7796L2.16939 10.4025L1.98082 11.7224ZM7.00914 6.06555L5.24923 5.81414L5.06067 7.13407L6.82058 7.38549L7.00914 6.06555ZM1.10087 9.08254C0.194465 9.98895 0.71186 11.5411 1.98083 11.7224L2.16939 10.4025C1.98811 10.3766 1.91419 10.1548 2.04368 10.0254L1.10087 9.08254ZM4.87211 7.19692C4.92156 7.14747 4.99142 7.12418 5.06067 7.13407L5.24923 5.81414C4.76453 5.74489 4.27551 5.9079 3.9293 6.25412L4.87211 7.19692Z" fill="#FEFEFD"/>
</svg>
